# xmcd CD database file
#
# Track frame offsets:
#	150
#	15147
#	31719
#	47572
#	65237
#	82322
#	98457
#	117197
#	131157
#	142912
#	154977
#	168750
#	184050
#	199952
#
# Disc length: 2897 seconds
#
# Revision: 0
# Processed by: cddbd v1.5PL3 Copyright (c) Steve Scherf et al.
# Submitted via: CDex 1.40Release
#
DISCID=b40b4f0e
DTITLE=Various Artist - Marching Orders Sony Music
DYEAR=1999
DGENRE=Country
TTITLE0=Lonely And Gone - Montgomery Gentry
TTITLE1=Almost Home - Mary Chapin Carpenter
TTITLE2=A Night To Remember - Joe Diffie
TTITLE3=My Kind Of Woman, My Kind Of Man - Patty Loveless
TTITLE4=Sundown - Deryl Dodd
TTITLE5=Albuquerque - Sons Of The Desert
TTITLE6=You're Not The Best - Charlie Robison
TTITLE7=Anymore Good Lovin' - Bruce Robison
TTITLE8=Drink Canada Dry - David Allan Coe
TTITLE9=All Things Considered - Yankee Grey
TTITLE10=This Time - Shana Petrone
TTITLE11=How Many Days - Jack Ingram
TTITLE12=Stuff That Matters - Tara Lyn Hart
TTITLE13=Ready To Run - Dixie Chicks
EXTD=YEAR: 1999 ID3G: 2
EXTT0=
EXTT1=
EXTT2=
EXTT3=
EXTT4=
EXTT5=
EXTT6=
EXTT7=
EXTT8=
EXTT9=
EXTT10=
EXTT11=
EXTT12=
EXTT13=
PLAYORDER=
